# xmcd
#
# Track frame offsets:
#	150
#	40371
#	80544
#	90372
#	115200
#	155935
#	199634
#	218066
#	246885
#	263947
#
# Disc length: 3758 seconds
#
# Revision: 1
# Processed by: cddbd v1.5.2PL0 Copyright (c) Steve Scherf et al.
# Submitted via: audiograbber 1.83.01
#
DISCID=870eac0a
DTITLE=Mark Knopfler and Fr. - Live in Nashville 01
DYEAR=2001
DGENRE=Country
TTITLE0=Calling Elvis
TTITLE1=Walk of life
TTITLE2=Bonnie Banks
TTITLE3=What it is
TTITLE4=Romeo and Juliet
TTITLE5=Sultans of swing
TTITLE6=Band
TTITLE7=Done with Bonaparte
TTITLE8=Lost on the river
TTITLE9=Alone and foresaken
EXTD=
EXTT0=
EXTT1=
EXTT2=
EXTT3=
EXTT4=
EXTT5=
EXTT6=
EXTT7=
EXTT8=
EXTT9=
PLAYORDER=
